<svg width="30" height="30" viewBox="0 0 30 30" fill="none" xmlns="http://www.w3.org/2000/svg">
<g id="basket_8y44qtyppgoj 1" clip-path="url(#clip0_19_10)">
<g id="Group">
<g id="Group_2">
<g id="Group_3">
<path id="Vector" d="M15.4419 18.9334C15.1977 18.6892 14.8022 18.6892 14.5581 18.9334L12.0581 21.4333C11.814 21.6775 11.814 22.073 12.0581 22.3171C12.3023 22.5613 12.6978 22.5613 12.9419 22.3171L14.3749 20.884V26.8752C14.3749 27.2206 14.6545 27.5002 15 27.5002C15.3454 27.5002 15.625 27.2206 15.625 26.8752V20.884L17.058 22.3171C17.1801 22.4392 17.34 22.5002 17.4999 22.5002C17.6598 22.5002 17.8197 22.4392 17.9418 22.3171C18.186 22.0729 18.186 21.6774 17.9418 21.4333L15.4419 18.9334Z" fill="white"/>
<path id="Vector_2" d="M29.3751 10.0003H24.079L17.3904 0.271435C17.1945 -0.0136197 16.8063 -0.0856304 16.5213 0.110304C16.2369 0.306239 16.1649 0.695003 16.3602 0.979414L22.562 10.0003H7.43863L13.6405 0.979472C13.8357 0.695062 13.7637 0.306239 13.4793 0.110363C13.1961 -0.0855718 12.8067 -0.0135611 12.6102 0.271494L5.9216 10.0003H0.625499C0.280035 10.0003 0.000488281 10.2799 0.000488281 10.6253C0.000488281 10.9708 0.280035 11.2503 0.625499 11.2503H1.43186L5.07429 21.6573C5.5125 22.9092 6.69778 23.7502 8.02409 23.7502H8.15709C8.47432 27.2489 11.4204 30.0001 15.0003 30.0001C18.5803 30.0001 21.5264 27.2489 21.8436 23.7502H21.9766C23.3028 23.7502 24.4882 22.9092 24.9264 21.6573L28.5688 11.2503H29.3752C29.7206 11.2503 30.0002 10.9708 30.0002 10.6253C30.0001 10.2799 29.7206 10.0003 29.3751 10.0003ZM15.0003 28.7501C11.8985 28.7501 9.37542 26.2269 9.37542 23.1251C9.37542 20.0234 11.8986 17.5002 15.0003 17.5002C18.1021 17.5002 20.6253 20.0234 20.6253 23.1251C20.6253 26.2269 18.1021 28.7501 15.0003 28.7501ZM23.7459 21.2447C23.4835 21.9954 22.7724 22.5001 21.9765 22.5001H21.8435C21.5263 19.0015 18.5802 16.2502 15.0003 16.2502C11.4204 16.2502 8.47426 19.0015 8.15704 22.5001H8.02403C7.22816 22.5001 6.51708 21.9954 6.25464 21.2447L2.7567 11.2503H27.244L23.7459 21.2447Z" fill="white"/>
</g>
</g>
</g>
</g>
<defs>
<clipPath id="clip0_19_10">
<rect width="30" height="30" fill="white"/>
</clipPath>
</defs>
</svg>
