<svg width="32" height="32" viewBox="0 0 32 32" fill="none" xmlns="http://www.w3.org/2000/svg">
<path d="M12.25 16L19.75 22.6667M19.75 16L12.25 22.6667M1 6H31M23.5 6L22.9926 4.64678C22.5008 3.33542 22.2548 2.67973 21.7988 2.19497C21.3961 1.76688 20.8789 1.43553 20.2947 1.2313C19.633 1 18.8556 1 17.3005 1H14.6995C13.1444 1 12.367 1 11.7053 1.2313C11.1211 1.43553 10.6039 1.76688 10.2012 2.19497C9.74509 2.67973 9.49923 3.33542 9.00745 4.64678L8.5 6M27.25 6V23C27.25 25.8003 27.25 27.2003 26.6369 28.27C26.0976 29.2108 25.2372 29.9757 24.1787 30.455C22.9754 31 21.4004 31 18.25 31H13.75C10.5997 31 9.02455 31 7.82131 30.455C6.76289 29.9757 5.90238 29.2108 5.36309 28.27C4.75 27.2003 4.75 25.8003 4.75 23V6" stroke="#CD323C" stroke-width="2" stroke-linecap="round" stroke-linejoin="round"/>
</svg>
