<svg width="82" height="82" viewBox="0 0 82 82" fill="none" xmlns="http://www.w3.org/2000/svg">
<g id="delivery-date-svgrepo-com 1">
<g id="Group">
<path id="Vector" d="M21.6132 50.5226C21.6132 50.1011 21.6225 49.6783 21.6667 49.2638H16.6636C16.6333 49.6783 16.625 50.1011 16.625 50.5226C16.625 50.9525 16.6333 51.367 16.6636 51.7816H21.6667C21.6225 51.3671 21.6132 50.9454 21.6132 50.5226Z" fill="#CD323C"/>
<path id="Vector_2" d="M30.4631 34.3905C30.9359 34.0912 31.4193 33.8082 31.9095 33.559L32.1006 33.4659L29.6073 29.1346C28.983 29.4502 28.375 29.7996 27.7856 30.1829L30.2802 34.514L30.4631 34.3905Z" fill="#CD323C"/>
<path id="Vector_3" d="M19.354 39.3878L23.6864 41.8813L24.7345 40.0622L20.4009 37.5676C20.019 38.1581 19.6697 38.7637 19.354 39.3878Z" fill="#CD323C"/>
<path id="Vector_4" d="M57.7057 59.3527C57.4459 59.8443 57.1722 60.3263 56.8648 60.7922L56.7402 60.9751L61.0737 63.4697C61.4557 62.8794 61.8052 62.2818 62.129 61.6577L57.8059 59.1548L57.7057 59.3527Z" fill="#CD323C"/>
<path id="Vector_5" d="M23.7772 59.3459L23.6771 59.1548L19.354 61.6483C19.6615 62.2725 20.019 62.8794 20.4011 63.4697L24.7346 60.9751L24.6089 60.7922C24.3094 60.3263 24.0277 59.8443 23.7772 59.3459Z" fill="#CD323C"/>
<path id="Vector_6" d="M30.4631 66.6469L30.2802 66.521L27.7856 70.8545C28.375 71.2376 28.9828 71.5939 29.6073 71.9107L32.1006 67.5783L31.9095 67.4864C31.4191 67.2374 30.9358 66.9542 30.4631 66.6469Z" fill="#CD323C"/>
<path id="Vector_7" d="M53.6888 30.1829C53.0996 29.7996 52.4987 29.4503 51.8779 29.1346L49.374 33.4589L51.1942 34.514L53.6888 30.1829Z" fill="#CD323C"/>
<path id="Vector_8" d="M39.4819 69.5968V74.5942C39.8977 74.6315 40.3192 74.6384 40.7396 74.6384C41.1636 74.6384 41.5851 74.6315 41.9998 74.5942V69.5968V69.5443H39.4819V69.5968Z" fill="#CD323C"/>
<path id="Vector_9" d="M41.9998 31.4498V26.4523C41.5851 26.4152 41.1636 26.407 40.7396 26.407C40.3192 26.407 39.8977 26.4152 39.4819 26.4523V31.4498V31.5022H41.9998V31.4498Z" fill="#CD323C"/>
<path id="Vector_10" d="M49.374 67.5865L51.8779 71.9107C52.4987 71.5847 53.0996 71.2376 53.6888 70.8545L51.1942 66.521L49.374 67.5865Z" fill="#CD323C"/>
<path id="Vector_11" d="M62.129 39.3878C61.8122 38.7637 61.4557 38.1581 61.0737 37.5676L56.7402 40.0622L57.7977 41.8813L62.129 39.3878Z" fill="#CD323C"/>
<path id="Vector_12" d="M64.8191 49.2638H59.8147H59.7622V51.7816H59.8147H64.8191C64.8493 51.3671 64.8563 50.9454 64.8563 50.5226C64.8563 50.1011 64.8494 49.6783 64.8191 49.2638Z" fill="#CD323C"/>
<path id="Vector_13" d="M70.8124 23.7471C70.8124 23.7471 70.6762 26.3512 68.1804 27.4598C65.6845 28.5697 63.1889 26.074 66.7945 23.2998C70.399 20.5257 70.1218 11.3765 66.7945 8.60241C67.6261 10.8209 64.1579 13.8722 61.9416 11.9309C59.7219 8.32534 62.079 2.36256 65.4074 0.699341C62.9115 -1.24432 55.5618 0.97545 55.5618 5.96816C55.5618 9.93956 55.7003 11.5153 52.372 11.3766C48.7291 11.2229 51.8188 4.99585 52.372 4.16416C41.5561 5.68981 47.6575 15.2582 43.4974 15.5343C39.3375 15.8126 41.8343 11.3765 42.1116 10.8199C34.8783 12.0229 36.6414 16.545 31.5986 20.4002C18.6737 24.3166 9.26479 36.3181 9.26367 50.5239C9.26479 67.9092 23.3555 81.9988 40.7397 81.9999C58.1251 81.9988 72.2158 67.9092 72.2169 50.5238C72.2169 46.5071 71.4565 42.6708 70.0857 39.1384C70.4281 34.9097 71.9514 32.3185 72.4615 30.2198C73.604 25.5242 70.8124 23.7471 70.8124 23.7471ZM40.7397 77.9389C33.1627 77.9377 26.3218 74.8736 21.3547 69.9089C16.39 64.9407 13.3257 58.0998 13.3248 50.5239C13.3257 42.9458 16.39 36.1049 21.3547 31.1378C26.3218 26.173 33.1627 23.1089 40.7397 23.1089C48.3167 23.1089 55.1576 26.173 60.1259 31.1378C65.0908 36.1049 68.1547 42.9458 68.1558 50.5239C68.1547 58.0998 65.0906 64.9407 60.1259 69.9089C55.1576 74.8736 48.3167 77.9377 40.7397 77.9389Z" fill="#CD323C"/>
<path id="Vector_14" d="M51.4658 37.4197L40.8132 48.7991L32.5887 43.0729C31.8201 42.5056 30.6659 42.7676 30.0148 43.6574C29.3638 44.5449 29.4604 45.7235 30.2326 46.2894L39.531 53.4635L39.6591 53.538L39.7185 53.5693C40.5233 54.0178 41.5866 53.7801 42.2958 52.9987L42.3576 52.9382L53.7545 39.4543C54.4044 38.7275 54.4159 37.6818 53.7835 37.1192C53.151 36.5579 52.1133 36.693 51.4658 37.4197Z" fill="#CD323C"/>
</g>
</g>
</svg>
