<svg width="86" height="75" viewBox="0 0 86 75" fill="none" xmlns="http://www.w3.org/2000/svg">
<g id="Group 24">
<g id="ruble">
<path id="Vector" d="M39.6094 70.726L41.2699 72.3865" stroke="#CD323C" stroke-width="3" stroke-linecap="round" stroke-linejoin="round"/>
<path id="Vector_2" d="M33.7969 64.9136L35.4574 66.5741" stroke="#CD323C" stroke-width="3" stroke-linecap="round" stroke-linejoin="round"/>
<path id="Vector_3" d="M39.6094 66.5741L41.2699 64.9136" stroke="#CD323C" stroke-width="3" stroke-linecap="round" stroke-linejoin="round"/>
<path id="Vector_4" d="M33.7969 72.3865L35.4574 70.726" stroke="#CD323C" stroke-width="3" stroke-linecap="round" stroke-linejoin="round"/>
<path id="Vector_5" d="M60.7665 7.83337C62.2761 7.83337 63.4999 6.60961 63.4999 5.10003C63.4999 3.59045 62.2761 2.3667 60.7665 2.3667C59.257 2.3667 58.0332 3.59045 58.0332 5.10003C58.0332 6.60961 59.257 7.83337 60.7665 7.83337Z" stroke="#CD323C" stroke-width="3" stroke-linecap="round" stroke-linejoin="round"/>
<path id="Vector_6" d="M21.3203 6.05261V7.98645" stroke="#CD323C" stroke-width="3" stroke-linecap="round" stroke-linejoin="round"/>
<path id="Vector_7" d="M21.3203 13.7865V15.7203" stroke="#CD323C" stroke-width="3" stroke-linecap="round" stroke-linejoin="round"/>
<path id="Vector_8" d="M16.4868 10.8865H18.4193" stroke="#CD323C" stroke-width="3" stroke-linecap="round" stroke-linejoin="round"/>
<path id="Vector_9" d="M24.2207 10.8865H26.1545" stroke="#CD323C" stroke-width="3" stroke-linecap="round" stroke-linejoin="round"/>
<path id="Vector_10" d="M13.6169 5.1C14.7491 5.1 15.6669 4.18218 15.6669 3.05C15.6669 1.91782 14.7491 1 13.6169 1C12.4847 1 11.5669 1.91782 11.5669 3.05C11.5669 4.18218 12.4847 5.1 13.6169 5.1Z" fill="#CD323C"/>
<path id="Vector_11" d="M12.2502 73.4334C13.3824 73.4334 14.3002 72.5156 14.3002 71.3834C14.3002 70.2512 13.3824 69.3334 12.2502 69.3334C11.118 69.3334 10.2002 70.2512 10.2002 71.3834C10.2002 72.5156 11.118 73.4334 12.2502 73.4334Z" fill="#CD323C"/>
<path id="Vector_12" d="M51.6141 55.6667H2V22.8667H75.8V46.726" stroke="#CD323C" stroke-width="3" stroke-linecap="round" stroke-linejoin="round"/>
<path id="Vector_13" d="M38.9001 51.5667C45.6932 51.5667 51.2001 46.0598 51.2001 39.2667C51.2001 32.4736 45.6932 26.9667 38.9001 26.9667C32.107 26.9667 26.6001 32.4736 26.6001 39.2667C26.6001 46.0598 32.107 51.5667 38.9001 51.5667Z" stroke="#CD323C" stroke-width="3" stroke-linecap="round" stroke-linejoin="round"/>
<path id="Vector_14" d="M22.5001 26.9667H12.9334C12.9334 28.779 12.2135 30.5171 10.932 31.7986C9.6505 33.0801 7.91241 33.8 6.1001 33.8V43.3667" stroke="#CD323C" stroke-width="3" stroke-linecap="round" stroke-linejoin="round"/>
<path id="Vector_15" d="M7.46676 29.7C8.22155 29.7 8.83343 29.0881 8.83343 28.3333C8.83343 27.5786 8.22155 26.9667 7.46676 26.9667C6.71198 26.9667 6.1001 27.5786 6.1001 28.3333C6.1001 29.0881 6.71198 29.7 7.46676 29.7Z" fill="#CD323C"/>
<path id="Vector_16" d="M70.3332 73.4333C77.8811 73.4333 83.9998 67.3145 83.9998 59.7666C83.9998 52.2188 77.8811 46.1 70.3332 46.1C62.7853 46.1 56.6665 52.2188 56.6665 59.7666C56.6665 67.3145 62.7853 73.4333 70.3332 73.4333Z" stroke="#CD323C" stroke-width="3" stroke-linecap="round" stroke-linejoin="round"/>
<path id="Vector_17" d="M70.3333 69.3333C75.6168 69.3333 79.8999 65.0501 79.8999 59.7666C79.8999 54.4831 75.6168 50.2 70.3333 50.2C65.0497 50.2 60.7666 54.4831 60.7666 59.7666C60.7666 65.0501 65.0497 69.3333 70.3333 69.3333Z" stroke="#CD323C" stroke-width="3" stroke-linecap="round" stroke-linejoin="round"/>
<path id="Vector_18" d="M36.1664 46.1V32.4333H40.9498C41.8559 32.4333 42.725 32.7933 43.3657 33.4341C44.0065 34.0748 44.3664 34.9439 44.3664 35.85C44.3664 36.7562 44.0065 37.6252 43.3657 38.266C42.725 38.9067 41.8559 39.2667 40.9498 39.2667H33.4331" stroke="#CD323C" stroke-width="3" stroke-linecap="round" stroke-linejoin="round"/>
<path id="Vector_19" d="M33.4331 43.3667H41.6331" stroke="#CD323C" stroke-width="3" stroke-linecap="round" stroke-linejoin="round"/>
</g>
</g>
</svg>
