<svg width="82" height="82" viewBox="0 0 82 82" fill="none" xmlns="http://www.w3.org/2000/svg">
<g id="like-svgrepo-com (2) 1" clip-path="url(#clip0_13_63)">
<path id="Vector" fill-rule="evenodd" clip-rule="evenodd" d="M69.921 48.2353H65.0975V53.0588C67.7552 53.0588 69.921 55.2198 69.921 57.8823C69.921 60.545 67.7552 62.7059 65.0975 62.7059H60.2739V67.5294C62.9317 67.5294 65.0975 69.6904 65.0975 72.353C65.0975 75.0155 62.9317 77.1764 60.274 77.1764H19.274C12.6271 77.1764 7.21512 71.7693 7.21512 65.1177V38.5882H11.7686C17.7546 38.5882 23.4849 36.1282 27.498 31.8498C33.2478 25.7142 40.0296 16.1974 40.8882 4.82348H42.4414C44.5975 4.82348 46.6282 5.77857 48.0078 7.44748C49.4018 9.13574 49.9661 11.3401 49.5512 13.4913C48.5818 18.5561 46.9803 23.5726 44.8001 28.4009C43.7824 30.6438 43.9753 33.21 45.3018 35.2744C46.6427 37.3486 48.9194 38.5882 51.3939 38.5882H69.921C72.5788 38.5882 74.7446 40.7491 74.7446 43.4117C74.7446 46.0743 72.5788 48.2352 69.921 48.2352M79.5681 43.4117C79.5681 38.0913 75.2414 33.7647 69.921 33.7647H51.3939C50.5546 33.7647 49.8118 33.3643 49.3584 32.6601C48.9146 31.9703 48.8519 31.1407 49.1944 30.3882C51.5289 25.2173 53.2461 19.8343 54.2928 14.3933C54.9729 10.824 54.042 7.17257 51.7267 4.37491C49.4259 1.59661 46.0397 0 42.4414 0H36.1563V2.41174C36.1563 13.2792 29.5336 22.6223 23.9817 28.5505C20.8754 31.8594 16.4232 33.7647 11.7686 33.7647H2.3916V65.1177C2.3916 74.427 9.96456 82 19.2739 82H60.2739C65.5943 82 69.921 77.6733 69.921 72.353C69.921 70.3704 69.3181 68.523 68.2906 66.9892C72.0434 65.6675 74.7445 62.0837 74.7445 57.8823C74.7445 55.8999 74.1416 54.0525 73.1142 52.5186C76.8669 51.197 79.5681 47.613 79.5681 43.4118" fill="#CD323C"/>
</g>
<defs>
<clipPath id="clip0_13_63">
<rect width="82" height="82" fill="white"/>
</clipPath>
</defs>
</svg>
